# xmcd
#
# Track frame offsets: 
#        150
#        12992
#        22057
#        44822
#        66082
#        78225
#        97430
#        120647
#        131975
#        147835
#        167945
#
# Disc length: 2449 seconds
#
# Revision: 3
# Processed by: cddbd v1.5.2PL0 Copyright (c) Steve Scherf et al.
# Submitted via: ExactAudioCopy v1.0b2
#
DISCID=a6098f0b
DTITLE=Various Artist - Space Battleship Yamato CD-BOX - Final Yamato Part 3
DYEAR=2004
DGENRE=Soundtrack
TTITLE0=The Nutrino Beam Miracle
TTITLE1=Final Yamato Battle
TTITLE2=Yamato and Me (Kodai)
TTITLE3=Deingil Boy's Theme
TTITLE4=Yamato Escapes
TTITLE5=Okita and Kodai
TTITLE6=Drowning of Planet Deingil
TTITLE7=Leader Lugal's Battle
TTITLE8=Yuki's Theme
TTITLE9=Shima Daisuke's Theme
TTITLE10=Aquarius Requiem II
EXTD=YEAR: 1983.8.21
EXTT0=
EXTT1=
EXTT2=
EXTT3=
EXTT4=
EXTT5=
EXTT6=
EXTT7=
EXTT8=
EXTT9=
EXTT10=
PLAYORDER=
